<mxfile host="app.diagrams.net" modified="2024-04-30T14:43:32.798Z" agent="Mozilla/5.0 (Windows NT 10.0; Win64; x64) AppleWebKit/537.36 (KHTML, like Gecko) Chrome/124.0.0.0 Safari/537.36" etag="9JL5fs9C2wdNJ3y6mGov" version="24.3.1" type="github">
  <diagram name="Page-1" id="T99t_MOH9tyPHU7TZ1BH">
    <mxGraphModel dx="1195" dy="685" grid="0" gridSize="10" guides="1" tooltips="1" connect="1" arrows="1" fold="1" page="0" pageScale="1" pageWidth="827" pageHeight="1169" math="0" shadow="0">
      <root>
        <mxCell id="0" />
        <mxCell id="1" parent="0" />
        <mxCell id="bMJEQ339XqyDVvZ4SXNy-10" style="edgeStyle=none;curved=1;rounded=0;orthogonalLoop=1;jettySize=auto;html=1;entryX=0.5;entryY=0;entryDx=0;entryDy=0;fontSize=12;startSize=8;endSize=8;" edge="1" parent="1" source="bMJEQ339XqyDVvZ4SXNy-1" target="bMJEQ339XqyDVvZ4SXNy-2">
          <mxGeometry relative="1" as="geometry" />
        </mxCell>
        <mxCell id="bMJEQ339XqyDVvZ4SXNy-18" style="edgeStyle=none;curved=1;rounded=0;orthogonalLoop=1;jettySize=auto;html=1;entryX=0;entryY=0.5;entryDx=0;entryDy=0;fontSize=12;startSize=8;endSize=8;" edge="1" parent="1" source="bMJEQ339XqyDVvZ4SXNy-1" target="bMJEQ339XqyDVvZ4SXNy-17">
          <mxGeometry relative="1" as="geometry" />
        </mxCell>
        <mxCell id="bMJEQ339XqyDVvZ4SXNy-1" value="User" style="rounded=0;whiteSpace=wrap;html=1;" vertex="1" parent="1">
          <mxGeometry x="13" y="63" width="140" height="60" as="geometry" />
        </mxCell>
        <mxCell id="bMJEQ339XqyDVvZ4SXNy-9" style="edgeStyle=none;curved=1;rounded=0;orthogonalLoop=1;jettySize=auto;html=1;entryX=0.5;entryY=0;entryDx=0;entryDy=0;fontSize=12;startSize=8;endSize=8;" edge="1" parent="1" source="bMJEQ339XqyDVvZ4SXNy-2" target="bMJEQ339XqyDVvZ4SXNy-3">
          <mxGeometry relative="1" as="geometry" />
        </mxCell>
        <mxCell id="bMJEQ339XqyDVvZ4SXNy-2" value="Dimensions&lt;div&gt;Input&lt;/div&gt;" style="rounded=0;whiteSpace=wrap;html=1;" vertex="1" parent="1">
          <mxGeometry x="13" y="198" width="140" height="60" as="geometry" />
        </mxCell>
        <mxCell id="bMJEQ339XqyDVvZ4SXNy-6" style="edgeStyle=none;curved=1;rounded=0;orthogonalLoop=1;jettySize=auto;html=1;entryX=0;entryY=0.5;entryDx=0;entryDy=0;fontSize=12;startSize=8;endSize=8;" edge="1" parent="1" source="bMJEQ339XqyDVvZ4SXNy-3" target="bMJEQ339XqyDVvZ4SXNy-4">
          <mxGeometry relative="1" as="geometry" />
        </mxCell>
        <mxCell id="bMJEQ339XqyDVvZ4SXNy-3" value="Shape Interface" style="rounded=0;whiteSpace=wrap;html=1;" vertex="1" parent="1">
          <mxGeometry x="13" y="336" width="140" height="60" as="geometry" />
        </mxCell>
        <mxCell id="bMJEQ339XqyDVvZ4SXNy-7" style="edgeStyle=orthogonalEdgeStyle;rounded=0;orthogonalLoop=1;jettySize=auto;html=1;entryX=0;entryY=0.5;entryDx=0;entryDy=0;fontSize=12;startSize=8;endSize=8;" edge="1" parent="1" source="bMJEQ339XqyDVvZ4SXNy-4" target="bMJEQ339XqyDVvZ4SXNy-5">
          <mxGeometry relative="1" as="geometry" />
        </mxCell>
        <mxCell id="bMJEQ339XqyDVvZ4SXNy-36" style="edgeStyle=orthogonalEdgeStyle;rounded=0;orthogonalLoop=1;jettySize=auto;html=1;entryX=0.5;entryY=0;entryDx=0;entryDy=0;fontSize=12;startSize=8;endSize=8;" edge="1" parent="1" source="bMJEQ339XqyDVvZ4SXNy-4" target="bMJEQ339XqyDVvZ4SXNy-35">
          <mxGeometry relative="1" as="geometry" />
        </mxCell>
        <mxCell id="bMJEQ339XqyDVvZ4SXNy-39" style="edgeStyle=none;curved=1;rounded=0;orthogonalLoop=1;jettySize=auto;html=1;entryX=0.5;entryY=1;entryDx=0;entryDy=0;fontSize=12;startSize=8;endSize=8;" edge="1" parent="1" source="bMJEQ339XqyDVvZ4SXNy-4" target="bMJEQ339XqyDVvZ4SXNy-37">
          <mxGeometry relative="1" as="geometry" />
        </mxCell>
        <mxCell id="bMJEQ339XqyDVvZ4SXNy-4" value="Calculator" style="rounded=0;whiteSpace=wrap;html=1;" vertex="1" parent="1">
          <mxGeometry x="269" y="336" width="140" height="60" as="geometry" />
        </mxCell>
        <mxCell id="bMJEQ339XqyDVvZ4SXNy-30" style="edgeStyle=orthogonalEdgeStyle;rounded=0;orthogonalLoop=1;jettySize=auto;html=1;entryX=0.5;entryY=0;entryDx=0;entryDy=0;fontSize=12;startSize=8;endSize=8;" edge="1" parent="1" source="bMJEQ339XqyDVvZ4SXNy-5" target="bMJEQ339XqyDVvZ4SXNy-23">
          <mxGeometry relative="1" as="geometry" />
        </mxCell>
        <mxCell id="bMJEQ339XqyDVvZ4SXNy-33" style="edgeStyle=orthogonalEdgeStyle;rounded=0;orthogonalLoop=1;jettySize=auto;html=1;entryX=0.5;entryY=0;entryDx=0;entryDy=0;fontSize=12;startSize=8;endSize=8;" edge="1" parent="1" source="bMJEQ339XqyDVvZ4SXNy-5" target="bMJEQ339XqyDVvZ4SXNy-12">
          <mxGeometry relative="1" as="geometry">
            <Array as="points">
              <mxPoint x="548" y="323" />
              <mxPoint x="479" y="323" />
            </Array>
          </mxGeometry>
        </mxCell>
        <mxCell id="bMJEQ339XqyDVvZ4SXNy-34" style="edgeStyle=orthogonalEdgeStyle;rounded=0;orthogonalLoop=1;jettySize=auto;html=1;entryX=0.5;entryY=0;entryDx=0;entryDy=0;fontSize=12;startSize=8;endSize=8;" edge="1" parent="1" source="bMJEQ339XqyDVvZ4SXNy-5" target="bMJEQ339XqyDVvZ4SXNy-13">
          <mxGeometry relative="1" as="geometry">
            <Array as="points">
              <mxPoint x="600" y="255" />
              <mxPoint x="673" y="255" />
              <mxPoint x="673" y="397" />
              <mxPoint x="830" y="397" />
            </Array>
          </mxGeometry>
        </mxCell>
        <mxCell id="bMJEQ339XqyDVvZ4SXNy-5" value="Shape Factory" style="rounded=0;whiteSpace=wrap;html=1;" vertex="1" parent="1">
          <mxGeometry x="494" y="184" width="140" height="60" as="geometry" />
        </mxCell>
        <mxCell id="bMJEQ339XqyDVvZ4SXNy-11" value="Square" style="rounded=0;whiteSpace=wrap;html=1;" vertex="1" parent="1">
          <mxGeometry x="585" y="447" width="140" height="60" as="geometry" />
        </mxCell>
        <mxCell id="bMJEQ339XqyDVvZ4SXNy-12" value="Rectangle" style="rounded=0;whiteSpace=wrap;html=1;" vertex="1" parent="1">
          <mxGeometry x="409" y="447" width="140" height="60" as="geometry" />
        </mxCell>
        <mxCell id="bMJEQ339XqyDVvZ4SXNy-13" value="Circle" style="rounded=0;whiteSpace=wrap;html=1;" vertex="1" parent="1">
          <mxGeometry x="760" y="447" width="140" height="60" as="geometry" />
        </mxCell>
        <mxCell id="bMJEQ339XqyDVvZ4SXNy-17" value="Get Help" style="rounded=0;whiteSpace=wrap;html=1;" vertex="1" parent="1">
          <mxGeometry x="275" y="63" width="140" height="60" as="geometry" />
        </mxCell>
        <mxCell id="bMJEQ339XqyDVvZ4SXNy-23" value="...Other Shapes" style="rounded=0;whiteSpace=wrap;html=1;" vertex="1" parent="1">
          <mxGeometry x="703" y="276" width="140" height="60" as="geometry" />
        </mxCell>
        <mxCell id="bMJEQ339XqyDVvZ4SXNy-31" style="edgeStyle=orthogonalEdgeStyle;rounded=0;orthogonalLoop=1;jettySize=auto;html=1;entryX=0.464;entryY=0.036;entryDx=0;entryDy=0;entryPerimeter=0;fontSize=12;startSize=8;endSize=8;" edge="1" parent="1" source="bMJEQ339XqyDVvZ4SXNy-5" target="bMJEQ339XqyDVvZ4SXNy-11">
          <mxGeometry relative="1" as="geometry">
            <Array as="points">
              <mxPoint x="573" y="323" />
              <mxPoint x="650" y="323" />
            </Array>
          </mxGeometry>
        </mxCell>
        <mxCell id="bMJEQ339XqyDVvZ4SXNy-35" value="Calculation History" style="rounded=0;whiteSpace=wrap;html=1;" vertex="1" parent="1">
          <mxGeometry x="178" y="466" width="140" height="60" as="geometry" />
        </mxCell>
        <mxCell id="bMJEQ339XqyDVvZ4SXNy-37" value="Show Results&lt;br&gt;rendered with ReactJs" style="rounded=0;whiteSpace=wrap;html=1;" vertex="1" parent="1">
          <mxGeometry x="269" y="205" width="140" height="60" as="geometry" />
        </mxCell>
      </root>
    </mxGraphModel>
  </diagram>
</mxfile>
